<svg viewBox="0,0,464,250" width="464" height="250" xmlns="http://www.w3.org/2000/svg" xmlns:xlink="http://www.w3.org/1999/xlink"><g><g transform="translate(56,0)"><rect x="2" y="10" width="24" height="180" fill="#ffa600"/><rect x="27" y="10" width="24" height="180" fill="#f95d6a"/></g><g transform="translate(115,0)"><rect x="2" y="10" width="24" height="180" fill="#ffa600"/><rect x="27" y="12" width="24" height="178" fill="#f95d6a"/></g><g transform="translate(174,0)"><rect x="2" y="10" width="24" height="180" fill="#ffa600"/><rect x="27" y="9" width="24" height="181" fill="#f95d6a"/></g><g transform="translate(233,0)"><rect x="2" y="10" width="24" height="180" fill="#ffa600"/><rect x="27" y="11" width="24" height="179" fill="#f95d6a"/></g><g transform="translate(292,0)"><rect x="2" y="10" width="24" height="180" fill="#ffa600"/><rect x="27" y="58" width="24" height="132" fill="#f95d6a"/></g><g transform="translate(351,0)"><rect x="2" y="10" width="24" height="180" fill="#ffa600"/><rect x="27" y="168" width="24" height="22" fill="#f95d6a"/></g><g transform="translate(410,0)"><rect x="2" y="10" width="24" height="180" fill="#ffa600"/><rect x="27" y="172" width="24" height="18" fill="#f95d6a"/></g></g><g transform="translate(0,190)" fill="none" font-size="10" font-family="sans-serif" text-anchor="middle"><g class="tick" opacity="1" transform="translate(83,0)" font-size="16"><line stroke="currentColor" y2="6"/><text fill="currentColor" y="9" dy="1.0em">10<tspan dy="-.7em" font-size="12">2</tspan></text></g><g class="tick" opacity="1" transform="translate(142,0)" font-size="16"><line stroke="currentColor" y2="6"/><text fill="currentColor" y="9" dy="1.0em">10<tspan dy="-.7em" font-size="12">3</tspan></text></g><g class="tick" opacity="1" transform="translate(201,0)" font-size="16"><line stroke="currentColor" y2="6"/><text fill="currentColor" y="9" dy="1.0em">10<tspan dy="-.7em" font-size="12">4</tspan></text></g><g class="tick" opacity="1" transform="translate(260,0)" font-size="16"><line stroke="currentColor" y2="6"/><text fill="currentColor" y="9" dy="1.0em">10<tspan dy="-.7em" font-size="12">5</tspan></text></g><g class="tick" opacity="1" transform="translate(319,0)" font-size="16"><line stroke="currentColor" y2="6"/><text fill="currentColor" y="9" dy="1.0em">10<tspan dy="-.7em" font-size="12">6</tspan></text></g><g class="tick" opacity="1" transform="translate(378,0)" font-size="16"><line stroke="currentColor" y2="6"/><text fill="currentColor" y="9" dy="1.0em">10<tspan dy="-.7em" font-size="12">7</tspan></text></g><g class="tick" opacity="1" transform="translate(437,0)" font-size="16"><line stroke="currentColor" y2="6"/><text fill="currentColor" y="9" dy="1.0em">10<tspan dy="-.7em" font-size="12">8</tspan></text></g></g><text transform="rotate(-90)" x="-95" y="0" dy="1em" text-anchor="middle" fill="currentColor" font-family="sans-serif" font-size="16" font-weight="bold">Normalized Rate</text><g transform="translate(55,0)" fill="none" font-size="10" font-family="sans-serif" text-anchor="end"><g class="tick" opacity="1" transform="translate(0,190)" font-size="16"><line stroke="currentColor" x2="-6"/><text fill="currentColor" x="-9" dy="0.32em">         0</text></g><g class="tick" opacity="1" transform="translate(0,154)" font-size="16"><line stroke="currentColor" x2="-6"/><text fill="currentColor" x="-9" dy="0.32em">       0.2</text></g><g class="tick" opacity="1" transform="translate(0,118)" font-size="16"><line stroke="currentColor" x2="-6"/><text fill="currentColor" x="-9" dy="0.32em">       0.4</text></g><g class="tick" opacity="1" transform="translate(0,82)" font-size="16"><line stroke="currentColor" x2="-6"/><text fill="currentColor" x="-9" dy="0.32em">       0.6</text></g><g class="tick" opacity="1" transform="translate(0,46)" font-size="16"><line stroke="currentColor" x2="-6"/><text fill="currentColor" x="-9" dy="0.32em">       0.8</text></g><g class="tick" opacity="1" transform="translate(0,10)" font-size="16"><line stroke="currentColor" x2="-6"/><text fill="currentColor" x="-9" dy="0.32em">         1</text></g></g><g transform="translate(232,230)" text-anchor="end" font-family="sans-serif" font-size="16"><g transform="translate(0, 0)"><rect x="-19" width="13" height="13" fill="#ffa600"/><text x="-24" y="6.5" dy="0.35em">Column-major</text></g><g transform="translate(150, 0)"><rect x="-19" width="13" height="13" fill="#f95d6a"/><text x="-24" y="6.5" dy="0.35em">Row-major</text></g></g></svg>